<?xml version="1.0" encoding="utf-8"?>
<!-- Generator: Adobe Illustrator 24.0.2, SVG Export Plug-In . SVG Version: 6.00 Build 0)  -->
<svg version="1.1" xmlns="http://www.w3.org/2000/svg" xmlns:xlink="http://www.w3.org/1999/xlink" x="0px" y="0px"
	 viewBox="0 0 512 512" style="enable-background:new 0 0 512 512;" xml:space="preserve">
<style type="text/css">
	.st0{fill:#126A75;}
	.st1{fill:none;stroke:#FFFFFF;stroke-width:10;stroke-linecap:round;stroke-linejoin:round;stroke-miterlimit:10;}
	.st2{fill:none;stroke:#FFFFFF;stroke-width:5;stroke-linecap:round;stroke-linejoin:round;stroke-miterlimit:10;}
	.st3{fill:#FFFFFF;stroke:#FFFFFF;stroke-width:10;stroke-linecap:round;stroke-linejoin:round;stroke-miterlimit:10;}
	.st4{fill:#FFFFFF;}
</style>
<g id="Layer_1">
</g>
<g id="Layer_2_background">
	<g>
		<circle class="st0" cx="256.0887" cy="255.7101" r="239.3491"/>
	</g>
</g>
<g id="Layer_3_elements">
	<path class="st1" d="M258.3951,378.4255l-131.8803-0.3975c-15.1321-1.427-20.6347-18.4302-21.6104-21.6104l-22.6288-95.7956
		h352.2391l-22.6288,95.7956c-0.9757,3.1801-6.4783,20.1834-21.6104,21.6104L258.3951,378.4255"/>
	<path class="st2" d="M409.3648,260.6221V144.3067c0-16.412-8.4803-21.5252-18.6471-21.5195
		c-17.4074,0.0097-20.8876,7.2998-21.5381,16.3343"/>
	<polygon class="st3" points="348.9425,154.9739 354.1464,143.4098 369.1797,137.2423 380.3582,145.1444 384.4057,157.2867 	"/>
	<g>
		<g>
			<path class="st4" d="M348.8472,166.9081l-1.2845,3.7919c-0.0323,0.0953-0.1357,0.1464-0.2311,0.1141
				c-0.0953-0.0323-0.1464-0.1357-0.1141-0.2311c0.0007-0.0022,0.0018-0.005,0.0026-0.0071l1.439-3.7359
				c0.0198-0.0516,0.0777-0.0773,0.1293-0.0574C348.8386,166.802,348.8642,166.8576,348.8472,166.9081z"/>
			<path class="st4" d="M345.3161,177.3186l-1.8015,5.2932c-0.0784,0.2304-0.3288,0.3536-0.5592,0.2752
				s-0.3536-0.3288-0.2752-0.5592c0.0018-0.0052,0.0044-0.0123,0.0063-0.0173l2.0172-5.2142
				c0.0648-0.1679,0.2534-0.2514,0.4213-0.1866C345.2885,176.9727,345.3717,177.1542,345.3161,177.3186z"/>
			<path class="st4" d="M341.2365,189.2194l-1.8393,5.2798c-0.118,0.3387-0.4882,0.5176-0.8268,0.3996
				c-0.3387-0.118-0.5175-0.4881-0.3996-0.8268c0.0019-0.0054,0.0051-0.0141,0.0071-0.0194l2.0006-5.2194
				c0.111-0.2906,0.4366-0.4361,0.7271-0.3251C341.1905,188.6169,341.3355,188.9333,341.2365,189.2194z"/>
			<path class="st4" d="M337.09,201.0951l-1.8438,5.2792c-0.1556,0.4456-0.6431,0.6807-1.0887,0.5251
				c-0.4456-0.1556-0.6807-0.6431-0.5251-1.0887c0.0029-0.0083,0.0077-0.0211,0.0108-0.0293l2.0261-5.2092
				c0.151-0.3899,0.5894-0.5836,0.9793-0.4326C337.0298,200.2871,337.2226,200.7119,337.09,201.0951z"/>
			<path class="st4" d="M332.941,212.9751c-0.6424,1.7502-1.2455,3.5151-1.9202,5.2533c-0.2064,0.5318-0.8048,0.7955-1.3366,0.5891
				c-0.5234-0.2032-0.7857-0.7902-0.597-1.3156c0.6312-1.7525,1.334-3.4782,1.9974-5.2187c0.1936-0.5117,0.7653-0.7695,1.277-0.576
				C332.8692,211.8993,333.126,212.4666,332.941,212.9751z"/>
			<path class="st4" d="M328.4521,224.7362c-0.7025,1.7296-1.4459,3.4433-2.1731,5.1626c-0.1633,0.386-0.6085,0.5665-0.9944,0.4033
				c-0.3698-0.1564-0.551-0.5716-0.4221-0.9455l0.0027-0.0076c0.6118-1.7607,1.2074-3.527,1.8438-5.2773l0.0019-0.0052
				c0.1761-0.4842,0.7114-0.7341,1.1956-0.558c0.4843,0.1761,0.7341,0.7114,0.558,1.1956
				C328.461,224.7136,328.4559,224.7268,328.4521,224.7362z"/>
			<path class="st4" d="M323.3542,236.2579l-0.912,1.7921c-0.1576,0.2964-0.3113,0.5949-0.4839,0.8852l-0.2658,0.4341
				c-0.0495,0.0722-0.0926,0.1427-0.1501,0.215c-0.0246,0.0346-0.0588,0.0734-0.0963,0.1113
				c-0.0174,0.0145-0.0368,0.0278-0.0564,0.0387c0.0035,0.024-0.1634,0.0112-0.1582-0.0384
				c-0.0453-0.0957-0.0183-0.0964-0.0204-0.1371c-0.0025-0.05,0.036-0.0925,0.086-0.095c0.0407-0.002,0.0765,0.0232,0.0897,0.0597
				l0.0225,0.0624c0,0,0.0159,0.0441-0.0082-0.0152c0.0093-0.0275-0.1219-0.0453-0.1061-0.0307l-0.007,0.0005
				c0.0159-0.0261,0.0335-0.0525,0.0514-0.0898c0.0363-0.0656,0.0681-0.1445,0.1012-0.2168l0.1822-0.4593l0.345-0.9338
				l0.6536-1.8867l0.0023-0.0068c0.0719-0.2077,0.2986-0.3177,0.5063-0.2458c0.2077,0.0719,0.3177,0.2986,0.2458,0.5063
				C323.3698,236.2244,323.3619,236.2425,323.3542,236.2579z"/>
		</g>
	</g>
	<g>
		<g>
			<path class="st4" d="M354.6641,166.6687l-0.8741,3.907c-0.022,0.0982-0.1194,0.16-0.2176,0.138
				c-0.0982-0.022-0.16-0.1194-0.138-0.2176c0.0005-0.0022,0.0012-0.0052,0.0018-0.0074l1.0337-3.8676
				c0.0143-0.0534,0.0691-0.0851,0.1224-0.0709C354.6442,166.5641,354.6756,166.6167,354.6641,166.6687z"/>
			<path class="st4" d="M352.2596,177.3956l-1.2287,5.4547c-0.0535,0.2374-0.2893,0.3866-0.5268,0.3331
				c-0.2374-0.0535-0.3866-0.2893-0.3331-0.5268c0.0012-0.0053,0.0031-0.0127,0.0044-0.0179l1.4515-5.3991
				c0.0466-0.1738,0.2253-0.2769,0.3991-0.2303C352.1953,177.0546,352.2974,177.2262,352.2596,177.3956z"/>
			<path class="st4" d="M349.4682,189.6626l-1.2676,5.4454c-0.0813,0.3493-0.4304,0.5665-0.7797,0.4852
				c-0.3493-0.0813-0.5665-0.4304-0.4852-0.7796c0.0013-0.0056,0.0036-0.0146,0.005-0.0201l1.4345-5.4025
				c0.0795-0.3007,0.3877-0.48,0.6884-0.4005C349.3584,189.0684,349.5362,189.3676,349.4682,189.6626z"/>
			<path class="st4" d="M346.6075,201.9118l-1.2721,5.4452c-0.1074,0.4597-0.5671,0.7452-1.0267,0.6378
				c-0.4597-0.1074-0.7452-0.5671-0.6378-1.0267c0.002-0.0085,0.0054-0.0218,0.0077-0.0303l1.4608-5.3951
				c0.1087-0.4037,0.5241-0.6429,0.9278-0.5343C346.4618,201.1148,346.6986,201.5167,346.6075,201.9118z"/>
			<path class="st4" d="M343.7449,214.1655c-0.4527,1.8085-0.8649,3.6276-1.3509,5.4276c-0.1487,0.5507-0.7157,0.8766-1.2664,0.7279
				c-0.5421-0.1464-0.8653-0.7022-0.7335-1.2447c0.4413-1.8097,0.9567-3.6003,1.4314-5.4014
				c0.1381-0.5294,0.6792-0.8465,1.2085-0.7085C343.5592,213.1035,343.8747,213.6402,343.7449,214.1655z"/>
			<path class="st4" d="M340.5316,226.3372c-0.5146,1.7945-1.0717,3.5775-1.612,5.3644c-0.1213,0.4011-0.5448,0.628-0.946,0.5067
				c-0.3843-0.1162-0.6086-0.5098-0.5201-0.8953l0.0019-0.0079c0.4211-1.8157,0.8256-3.6354,1.2724-5.4434l0.0013-0.0054
				c0.1236-0.5002,0.6293-0.8055,1.1295-0.6819c0.5002,0.1236,0.8055,0.6293,0.6819,1.1295
				C340.5381,226.3138,340.5344,226.3274,340.5316,226.3372z"/>
			<path class="st4" d="M336.6873,238.3355l-0.7164,1.8788c-0.1252,0.3114-0.2463,0.6246-0.3871,0.9316l-0.2182,0.4599
				c-0.0416,0.077-0.0769,0.1517-0.1264,0.2297c-0.0208,0.037-0.0507,0.0793-0.0839,0.1209
				c-0.0158,0.0163-0.0336,0.0316-0.0519,0.0445c0.006,0.0235-0.1613,0.0285-0.1614-0.0214
				c-0.0553-0.0903-0.0285-0.0939-0.0349-0.1342c-0.0078-0.0494,0.0259-0.0958,0.0754-0.1036
				c0.0403-0.0064,0.0786,0.0149,0.0956,0.0498l0.029,0.0597c0,0,0.0205,0.0422-0.0098-0.0142
				c0.0063-0.0283-0.1261-0.0321-0.1088-0.0192l-0.0069,0.0012c0.013-0.0277,0.0277-0.0558,0.0415-0.0948
				c0.0291-0.0691,0.0523-0.1509,0.0775-0.2263l0.1323-0.4761l0.2438-0.9652l0.4493-1.9455l0.0016-0.0071
				c0.0495-0.2141,0.2632-0.3476,0.4773-0.2982c0.2141,0.0495,0.3476,0.2632,0.2982,0.4773
				C336.6993,238.3005,336.6934,238.3193,336.6873,238.3355z"/>
		</g>
	</g>
	<g>
		<g>
			<path class="st4" d="M361.7523,164.9534l-0.7162,3.9389c-0.018,0.099-0.1129,0.1647-0.2119,0.1467s-0.1647-0.1129-0.1467-0.2119
				c0.0004-0.0022,0.001-0.0052,0.0015-0.0074l0.8773-3.9061c0.0121-0.0539,0.0656-0.0878,0.1195-0.0757
				C361.7282,164.8497,361.7617,164.901,361.7523,164.9534z"/>
			<path class="st4" d="M359.7813,175.7684l-1.0082,5.4998c-0.0439,0.2394-0.2735,0.3979-0.5129,0.354
				c-0.2394-0.0439-0.3979-0.2735-0.354-0.5129c0.001-0.0054,0.0025-0.0128,0.0037-0.0181l1.2332-5.4531
				c0.0396-0.1755,0.2139-0.2858,0.3895-0.2462C359.7034,175.4303,359.8123,175.5976,359.7813,175.7684z"/>
			<path class="st4" d="M357.4857,188.1378l-1.0475,5.492c-0.0672,0.3523-0.4072,0.5834-0.7595,0.5162
				c-0.3523-0.0672-0.5834-0.4072-0.5162-0.7595c0.0011-0.0056,0.003-0.0147,0.0042-0.0203l1.2159-5.4559
				c0.0674-0.3036,0.3681-0.4952,0.6718-0.4279C357.3521,187.5485,357.5418,187.8403,357.4857,188.1378z"/>
			<path class="st4" d="M355.1202,200.4921l-1.052,5.492c-0.0888,0.4636-0.5367,0.7674-1.0002,0.6786s-0.7674-0.5366-0.6786-1.0002
				c0.0016-0.0086,0.0045-0.022,0.0064-0.0305l1.2426-5.4495c0.0923-0.4078,0.4978-0.6635,0.9055-0.5712
				C354.9425,199.7016,355.1953,200.0937,355.1202,200.4921z"/>
			<path class="st4" d="M352.7529,212.8511c-0.3796,1.8253-0.7182,3.6595-1.1315,5.4776c-0.1264,0.5562-0.6798,0.9047-1.2361,0.7782
				c-0.5475-0.1245-0.8928-0.6668-0.783-1.2142c0.3682-1.8259,0.811-3.6358,1.2129-5.4546c0.1167-0.5345,0.6446-0.8732,1.179-0.7565
				C352.5246,211.7974,352.8615,212.321,352.7529,212.8511z"/>
			<path class="st4" d="M350.0319,225.1422c-0.442,1.8138-0.9268,3.6177-1.3948,5.4249c-0.1051,0.4057-0.5191,0.6494-0.9248,0.5443
				c-0.3886-0.1006-0.6287-0.4849-0.5558-0.8737l0.0015-0.008c0.3477-1.8312,0.6786-3.6656,1.0523-5.4902l0.0011-0.0055
				c0.1034-0.5048,0.5964-0.8302,1.1011-0.7268c0.5048,0.1034,0.8302,0.5964,0.7268,1.1012
				C350.0374,225.1185,350.0343,225.1323,350.0319,225.1422z"/>
			<path class="st4" d="M346.6735,237.2855l-0.6402,1.9061c-0.1126,0.3162-0.221,0.634-0.3493,0.9464l-0.1995,0.4683
				c-0.0385,0.0786-0.0708,0.1547-0.1171,0.2346c-0.0193,0.0378-0.0475,0.0813-0.0789,0.1242
				c-0.0151,0.0169-0.0323,0.0329-0.0501,0.0465c0.0069,0.0232-0.16,0.0349-0.1621-0.0148
				c-0.0589-0.088-0.0322-0.0926-0.0402-0.1327c-0.0098-0.0491,0.022-0.0968,0.0711-0.1066c0.04-0.008,0.0791,0.0117,0.0975,0.0459
				l0.0314,0.0585c0,0,0.0222,0.0413-0.0103-0.0138c0.0051-0.0285-0.1273-0.027-0.1095-0.0148l-0.0068,0.0015
				c0.0119-0.0282,0.0255-0.0568,0.0377-0.0964c0.0263-0.0702,0.0462-0.1529,0.0684-0.2293l0.113-0.481l0.2048-0.9742l0.3707-1.962
				l0.0013-0.0071c0.0408-0.216,0.2489-0.358,0.4649-0.3172c0.2159,0.0408,0.3579,0.2489,0.3171,0.4649
				C346.684,237.25,346.6789,237.2691,346.6735,237.2855z"/>
		</g>
	</g>
	<g>
		<g>
			<path class="st4" d="M366.0244,165.4281l-0.2728,3.9942c-0.0069,0.1004-0.0938,0.1763-0.1942,0.1694
				c-0.1004-0.0069-0.1762-0.0938-0.1694-0.1942c0.0002-0.0023,0.0004-0.0053,0.0007-0.0075l0.4366-3.9796
				c0.006-0.0549,0.0554-0.0946,0.1103-0.0886C365.9889,165.3277,366.0279,165.375,366.0244,165.4281z"/>
			<path class="st4" d="M365.2708,176.3953l-0.3891,5.5779c-0.0169,0.2428-0.2275,0.4259-0.4703,0.409s-0.4259-0.2275-0.409-0.4703
				c0.0004-0.0055,0.0011-0.013,0.0017-0.0184l0.6178-5.5566c0.0197-0.1789,0.1808-0.3078,0.3596-0.2881
				C365.1557,176.068,365.2825,176.2222,365.2708,176.3953z"/>
			<path class="st4" d="M364.3678,188.9435l-0.429,5.5745c-0.0275,0.3576-0.3397,0.6251-0.6973,0.5976
				c-0.3576-0.0275-0.6251-0.3397-0.5976-0.6973c0.0004-0.0057,0.0013-0.015,0.0019-0.0206l0.6004-5.5574
				c0.0331-0.3093,0.3106-0.5332,0.6199-0.5001C364.1693,188.3728,364.3904,188.6416,364.3678,188.9435z"/>
			<path class="st4" d="M363.3936,201.4845l-0.4335,5.575c-0.0366,0.4706-0.4478,0.8225-0.9184,0.7859
				c-0.4706-0.0366-0.8224-0.4478-0.7859-0.9184c0.0007-0.0087,0.002-0.0224,0.003-0.0311l0.6276-5.554
				c0.0463-0.4155,0.4207-0.7148,0.8363-0.6685C363.129,200.7188,363.4239,201.0802,363.3936,201.4845z"/>
			<path class="st4" d="M362.4182,214.0303c-0.1738,1.8562-0.306,3.7167-0.514,5.5696c-0.0637,0.5669-0.5748,0.9748-1.1417,0.9111
				c-0.558-0.0627-0.9615-0.5632-0.9134-1.1193c0.1624-1.8556,0.4008-3.7036,0.5976-5.5558
				c0.0564-0.5442,0.5432-0.9396,1.0874-0.8832C362.0739,213.0086,362.4671,213.4914,362.4182,214.0303z"/>
			<path class="st4" d="M361.0838,226.5481c-0.2372,1.8517-0.5179,3.6985-0.7816,5.5465c-0.0592,0.4149-0.4435,0.7032-0.8584,0.644
				c-0.3975-0.0567-0.6788-0.4118-0.6497-0.8063l0.0006-0.0081c0.1415-1.8585,0.266-3.7184,0.434-5.5733l0.0005-0.0056
				c0.0465-0.5132,0.5002-0.8915,1.0133-0.845c0.5132,0.0465,0.8915,0.5002,0.845,1.0133
				C361.0866,226.5239,361.0851,226.5379,361.0838,226.5481z"/>
			<path class="st4" d="M359.0994,238.9899l-0.4238,1.9656c-0.0767,0.3268-0.149,0.6547-0.2417,0.9795l-0.1461,0.4876
				c-0.0295,0.0824-0.0531,0.1616-0.0902,0.2462c-0.0149,0.0397-0.0381,0.086-0.0646,0.1322
				c-0.0131,0.0185-0.0285,0.0363-0.0446,0.0518c0.0095,0.0223-0.1552,0.0526-0.1628,0.0033
				c-0.0683-0.0809-0.0424-0.0885-0.0547-0.1273c-0.0152-0.0477,0.0111-0.0986,0.0588-0.1138
				c0.0389-0.0124,0.08,0.0028,0.102,0.0347l0.0377,0.0546c0,0,0.0267,0.0386-0.0118-0.0125
				c0.0019-0.0289-0.1295-0.0126-0.1104-0.0025l-0.0067,0.0022c0.0087-0.0293,0.019-0.0593,0.0267-0.1
				c0.0183-0.0727,0.0289-0.1571,0.0424-0.2355l0.0587-0.4906l0.0949-0.991l0.1497-1.9911l0.0005-0.0072
				c0.0165-0.2192,0.2075-0.3835,0.4267-0.367c0.2192,0.0165,0.3835,0.2075,0.367,0.4267
				C359.1059,238.9535,359.1029,238.973,359.0994,238.9899z"/>
		</g>
	</g>
	<g>
		<g>
			<path class="st4" d="M372.249,166.4761l0.0234,4.0035c0.0006,0.1006-0.0805,0.1827-0.1812,0.1833
				c-0.1006,0.0006-0.1827-0.0805-0.1833-0.1812c0-0.0023,0.0001-0.0053,0.0001-0.0076l0.1409-4.0009
				c0.0019-0.0552,0.0482-0.0984,0.1035-0.0965C372.2062,166.3786,372.2486,166.4228,372.249,166.4761z"/>
			<path class="st4" d="M372.309,177.469l0.0247,5.5914c0.0011,0.2434-0.1954,0.4416-0.4388,0.4426
				c-0.2434,0.0011-0.4416-0.1954-0.4426-0.4388c0-0.0055,0.0001-0.013,0.0003-0.0184l0.205-5.5871
				c0.0065-0.1798,0.1575-0.3204,0.3373-0.3139C372.17,177.1511,372.3078,177.2955,372.309,177.469z"/>
			<path class="st4" d="M372.3368,190.0496l-0.0154,5.591c-0.001,0.3586-0.2925,0.6485-0.6511,0.6476s-0.6485-0.2925-0.6476-0.6511
				c0-0.0057,0.0002-0.015,0.0004-0.0207l0.1876-5.5866c0.0101-0.3109,0.2703-0.5547,0.5812-0.5446
				C372.0967,189.4951,372.337,189.7469,372.3368,190.0496z"/>
			<path class="st4" d="M372.2932,202.6283l-0.0198,5.5918c-0.0017,0.472-0.3857,0.8533-0.8577,0.8517
				c-0.472-0.0017-0.8533-0.3857-0.8517-0.8577c0-0.0088,0.0004-0.0225,0.0007-0.0312l0.215-5.5853
				c0.0154-0.4178,0.3667-0.744,0.7845-0.7285C371.9727,201.8842,372.2935,202.2229,372.2932,202.6283z"/>
			<path class="st4" d="M372.2487,215.2119c-0.036,1.864-0.0302,3.7292-0.1006,5.5923c-0.0215,0.57-0.5011,1.0146-1.0711,0.9931
				c-0.5611-0.0212-1.0006-0.4905-0.9937-1.0487c0.0247-1.8625,0.1257-3.7231,0.1849-5.5848
				c0.016-0.5468,0.4722-0.9772,1.0191-0.9612C371.8298,214.2185,372.2576,214.6708,372.2487,215.2119z"/>
			<path class="st4" d="M371.8441,227.7941c-0.0995,1.8642-0.2429,3.7266-0.3691,5.5891c-0.0284,0.4181-0.3903,0.7341-0.8084,0.7057
				c-0.4005-0.0271-0.7074-0.3604-0.7075-0.756l0-0.0081c0.0036-1.8639-0.0099-3.7279,0.0205-5.5901l0.0001-0.0056
				c0.0084-0.5152,0.4328-0.926,0.948-0.9176c0.5152,0.0084,0.926,0.4328,0.9176,0.948
				C371.8452,227.7698,371.8446,227.7839,371.8441,227.7941z"/>
			<path class="st4" d="M370.7857,240.3486l-0.2772,1.9916c-0.0522,0.3316-0.1001,0.664-0.1685,0.9947l-0.1096,0.4971
				c-0.0233,0.0844-0.041,0.1651-0.0717,0.2522c-0.0119,0.0407-0.0316,0.0886-0.0547,0.1366
				c-0.0117,0.0194-0.0257,0.0383-0.0407,0.055c0.0111,0.0215-0.1508,0.0639-0.1621,0.0153
				c-0.0741-0.0757-0.0488-0.0851-0.064-0.123c-0.0187-0.0464,0.0038-0.0992,0.0502-0.1179
				c0.0378-0.0152,0.0799-0.0031,0.1043,0.0271l0.0416,0.0517c0,0,0.0294,0.0365-0.0127-0.0116
				c-0.0002-0.029-0.1301-0.003-0.1104,0.0057l-0.0064,0.0027c0.0065-0.0299,0.0146-0.0606,0.0193-0.1017
				c0.0128-0.0739,0.0172-0.1588,0.0249-0.238l0.0223-0.4936l0.0214-0.9953l0.002-1.9967v-0.0072
				c0.0002-0.2198,0.1786-0.3978,0.3983-0.3975c0.2198,0.0002,0.3978,0.1786,0.3975,0.3983
				C370.7895,240.3119,370.788,240.3315,370.7857,240.3486z"/>
		</g>
	</g>
	<g>
		<g>
			<path class="st4" d="M378.5623,166.2913l0.395,3.984c0.0099,0.1001-0.0632,0.1894-0.1634,0.1993
				c-0.1002,0.0099-0.1894-0.0632-0.1993-0.1634c-0.0002-0.0022-0.0005-0.0053-0.0006-0.0075l-0.2311-3.9967
				c-0.0032-0.0551,0.0389-0.1025,0.094-0.1057C378.5107,166.1982,378.557,166.2383,378.5623,166.2913z"/>
			<path class="st4" d="M379.6425,177.2312l0.5436,5.5649c0.0237,0.2422-0.1535,0.4578-0.3958,0.4815s-0.4578-0.1535-0.4814-0.3958
				c-0.0005-0.0054-0.0011-0.013-0.0014-0.0184l-0.3145-5.582c-0.0103-0.1796,0.127-0.3336,0.3067-0.3439
				C379.4746,176.9276,379.6252,177.0585,379.6425,177.2312z"/>
			<path class="st4" d="M380.8381,189.7549l0.5037,5.5683c0.0323,0.3572-0.231,0.6729-0.5882,0.7052
				c-0.3571,0.0323-0.6729-0.231-0.7052-0.5882c-0.0005-0.0057-0.0012-0.015-0.0015-0.0206l-0.3318-5.5799
				c-0.0188-0.3105,0.2177-0.5774,0.5281-0.5962C380.5476,189.225,380.8102,189.4534,380.8381,189.7549z"/>
			<path class="st4" d="M381.9624,202.2833l0.4994,5.5695c0.0421,0.4702-0.3048,0.8855-0.775,0.9276
				c-0.4702,0.0421-0.8854-0.3048-0.9276-0.775c-0.0008-0.0087-0.0017-0.0224-0.0022-0.0311l-0.3044-5.5811
				c-0.0234-0.4174,0.2961-0.7748,0.7135-0.7982C381.5742,201.5722,381.9251,201.8796,381.9624,202.2833z"/>
			<path class="st4" d="M383.0863,214.8167c0.1372,1.8593,0.3162,3.7159,0.419,5.5775c0.0315,0.5695-0.4048,1.0568-0.9743,1.0882
				c-0.5606,0.031-1.0418-0.3955-1.0868-0.9519c-0.1483-1.8568-0.2204-3.7187-0.3344-5.5779
				c-0.0349-0.546,0.3795-1.0168,0.9254-1.0517C382.5769,213.8664,383.0449,214.2771,383.0863,214.8167z"/>
			<path class="st4" d="M383.8514,227.382c0.074,1.8654,0.1041,3.7331,0.1513,5.5993c0.0106,0.4189-0.3204,0.7672-0.7393,0.7777
				c-0.4014,0.0101-0.7378-0.2932-0.7747-0.6871l-0.0007-0.0081c-0.1694-1.8562-0.3559-3.7109-0.4986-5.5679l-0.0004-0.0056
				c-0.0395-0.5137,0.345-0.9622,0.8588-1.0017c0.5137-0.0395,0.9622,0.345,1.0017,0.8587
				C383.8502,227.3578,383.851,227.3719,383.8514,227.382z"/>
			<path class="st4" d="M383.9631,239.9807l-0.0911,2.0087c-0.0212,0.335-0.0381,0.6704-0.0755,1.006l-0.063,0.5051
				c-0.0154,0.0862-0.0255,0.1682-0.048,0.2578c-0.0081,0.0417-0.0233,0.0912-0.0417,0.1411
				c-0.0099,0.0204-0.022,0.0405-0.0354,0.0585c0.0131,0.0204-0.1443,0.0776-0.1599,0.0303
				c-0.0808-0.0685-0.0565-0.0802-0.0752-0.1165c-0.0229-0.0445-0.0054-0.0991,0.0391-0.122
				c0.0363-0.0187,0.0793-0.0105,0.1064,0.0173l0.0462,0.0476c0,0,0.0327,0.0336-0.0137-0.0104
				c-0.0029-0.0288-0.1298,0.0091-0.1093,0.0159l-0.0062,0.0033c0.0037-0.0303,0.0089-0.0617,0.0097-0.103
				c0.006-0.0747,0.0023-0.1597,0.0027-0.2392l-0.0237-0.4936l-0.0711-0.993l-0.1833-1.9883l-0.0006-0.0072
				c-0.0202-0.2189,0.1409-0.4126,0.3597-0.4328c0.2188-0.0202,0.4126,0.1409,0.4328,0.3597
				C383.9634,239.9437,383.9637,239.9634,383.9631,239.9807z"/>
		</g>
	</g>
	<g>
		<g>
			<path class="st4" d="M383.6431,166.1267l0.6844,3.9446c0.0172,0.0992-0.0493,0.1935-0.1484,0.2107
				c-0.0992,0.0172-0.1935-0.0492-0.2107-0.1484c-0.0004-0.0022-0.0009-0.0052-0.0012-0.0075l-0.5219-3.9692
				c-0.0072-0.0548,0.0313-0.105,0.0861-0.1123C383.5848,166.0376,383.6339,166.0742,383.6431,166.1267z"/>
			<path class="st4" d="M385.5181,176.9587l0.948,5.5105c0.0413,0.2399-0.1198,0.4678-0.3596,0.509
				c-0.2399,0.0413-0.4678-0.1197-0.509-0.3596c-0.0009-0.0054-0.002-0.0129-0.0027-0.0182l-0.7207-5.5442
				c-0.0233-0.1784,0.1024-0.342,0.2808-0.3653C385.3285,176.6681,385.4883,176.7877,385.5181,176.9587z"/>
			<path class="st4" d="M387.6238,189.3618l0.9084,5.5167c0.0583,0.3539-0.1814,0.688-0.5352,0.7462
				c-0.3539,0.0583-0.6879-0.1814-0.7462-0.5352c-0.0009-0.0056-0.0023-0.0149-0.003-0.0205l-0.7379-5.5408
				c-0.0414-0.3083,0.175-0.5917,0.4833-0.6331C387.2954,188.8546,387.574,189.0632,387.6238,189.3618z"/>
			<path class="st4" d="M389.6587,201.7749l0.9041,5.5183c0.0763,0.4658-0.2394,0.9053-0.7052,0.9816s-0.9053-0.2394-0.9817-0.7052
				c-0.0014-0.0087-0.0033-0.0223-0.0045-0.0309l-0.7106-5.544c-0.0538-0.4146,0.2388-0.7943,0.6534-0.8481
				C389.2196,201.094,389.592,201.375,389.6587,201.7749z"/>
			<path class="st4" d="M391.6935,214.193c0.2724,1.8443,0.5863,3.6829,0.8246,5.5321c0.0729,0.5658-0.3266,1.0835-0.8924,1.1564
				c-0.5569,0.0718-1.0679-0.3185-1.1533-0.8701c-0.2833-1.841-0.491-3.6927-0.7402-5.5386
				c-0.0746-0.542,0.3043-1.0418,0.8463-1.1163C391.1162,213.2824,391.6129,213.6579,391.6935,214.193z"/>
			<path class="st4" d="M393.3729,226.6691c0.2098,1.855,0.3761,3.7156,0.5592,5.5733c0.0411,0.4171-0.2636,0.7885-0.6807,0.8296
				c-0.3995,0.0394-0.7572-0.2386-0.8227-0.6288l-0.0013-0.008c-0.3043-1.8389-0.6255-3.6751-0.9033-5.5167l-0.0008-0.0055
				c-0.0768-0.5095,0.2739-0.9848,0.7834-1.0616s0.9848,0.2739,1.0616,0.7834C393.3699,226.645,393.3717,226.659,393.3729,226.6691z
				"/>
			<path class="st4" d="M394.403,239.226l0.0556,2.01c0.0032,0.3356,0.0109,0.6714-0.0019,1.0089l-0.026,0.5084
				c-0.009,0.0871-0.0132,0.1696-0.0291,0.2606c-0.005,0.0421-0.0165,0.0926-0.0313,0.1438c-0.0084,0.0211-0.019,0.042-0.031,0.0609
				c0.0145,0.0194-0.1382,0.0879-0.1573,0.0419c-0.0856-0.0624-0.0622-0.0759-0.0835-0.1107
				c-0.0261-0.0427-0.0126-0.0984,0.0301-0.1245c0.0348-0.0213,0.0783-0.0162,0.1073,0.0095l0.0496,0.0441
				c0,0,0.0351,0.0312-0.0145-0.0094c-0.005-0.0285-0.1288,0.0185-0.1079,0.0238l-0.0059,0.0037
				c0.0015-0.0305,0.0044-0.0621,0.0022-0.1035c0.0005-0.075-0.0093-0.1594-0.0148-0.2388l-0.0596-0.4905l-0.1433-0.9851
				l-0.3279-1.9696l-0.0012-0.0072c-0.0361-0.2168,0.1104-0.4218,0.3272-0.4579s0.4218,0.1104,0.4579,0.3272
				C394.4006,239.1892,394.4024,239.2088,394.403,239.226z"/>
		</g>
	</g>
</g>
</svg>
