<?xml version="1.0" encoding="UTF-8" standalone="no"?> <svg width="512" height="512" viewBox="0 0 512 512" fill="none" xmlns="http://www.w3.org/2000/svg">
<path fill-rule="evenodd" clip-rule="evenodd" d="M256 28C130.079 28 28 130.079 28 256C28 381.921 130.079 484 256 484C381.921 484 484 381.921 484 256C484 130.079 381.921 28 256 28ZM44 256C44 138.916 138.916 44 256 44C373.084 44 468 138.916 468 256C468 373.084 373.084 468 256 468C138.916 468 44 373.084 44 256ZM84 256C84 161.007 161.007 84 256 84C350.993 84 428 161.007 428 256C428 350.993 350.993 428 256 428C161.007 428 84 350.993 84 256ZM256 68C152.17 68 68 152.17 68 256C68 359.83 152.17 444 256 444C359.83 444 444 359.83 444 256C444 152.17 359.83 68 256 68ZM212 136C196.536 136 184 148.536 184 164V356C184 371.464 196.536 384 212 384C227.464 384 240 371.464 240 356V292.174H281.913C325.039 292.174 360 257.213 360 214.087C360 170.961 325.039 136 281.913 136H212ZM200 164C200 157.373 205.373 152 212 152H281.913C316.203 152 344 179.797 344 214.087C344 248.377 316.203 276.174 281.913 276.174H232C227.582 276.174 224 279.756 224 284.174V356C224 362.627 218.627 368 212 368C205.373 368 200 362.627 200 356V164ZM232 176C227.582 176 224 179.582 224 184V244.174C224 248.592 227.582 252.174 232 252.174H281.913C302.948 252.174 320 235.122 320 214.087C320 193.052 302.948 176 281.913 176H232ZM240 236.174V192H281.913C294.111 192 304 201.889 304 214.087C304 226.285 294.111 236.174 281.913 236.174H240Z" fill="url(#paint0_linear)"/>
<defs>
<linearGradient id="paint0_linear" x1="64" y1="64" x2="448" y2="448" gradientUnits="userSpaceOnUse">
<stop stop-color="#FF003D"/>
<stop offset="1" stop-color="#3D00EB"/>
</linearGradient>
</defs>
</svg>
