<svg viewBox="0 0 48 48" xmlns="http://www.w3.org/2000/svg" xmlns:xlink="http://www.w3.org/1999/xlink" >
<defs>



 <path fill="#000000" id="i-454" d="M12.936,18.487c3.775,5.354,1.877,10.482,0.351,14.603c-1.277,3.451-1.981,5.648-0.44,7.289l-1.457,1.369 c-2.469-2.627-1.259-5.893,0.021-9.352c1.504-4.062,3.059-8.262-0.11-12.757L12.936,18.487z M33.449,41.748l1.457-1.369 c-1.543-1.641-0.838-3.838,0.439-7.289c1.525-4.12,3.424-9.248-0.352-14.603l-1.635,1.152c3.17,4.495,1.615,8.694,0.111,12.757 C32.189,35.855,30.98,39.121,33.449,41.748z M22.361,19.64c3.166,4.493,1.613,8.694,0.109,12.755 c-1.28,3.459-2.49,6.727-0.021,9.354l1.457-1.369c-1.542-1.641-0.838-3.84,0.439-7.29c1.524-4.12,3.423-9.247-0.351-14.602 L22.361,19.64z M48,18.557V47H0V18.557L24,0.755L48,18.557z M46,19.563L24,3.245L2,19.563V45h44V19.563z"/> 
</defs>

<use x="0" y="0" xlink:href="#i-454"/>

</svg>