<?xml version="1.0" encoding="iso-8859-1"?>
<!-- Generator: Adobe Illustrator 19.0.0, SVG Export Plug-In . SVG Version: 6.00 Build 0)  -->
<svg version="1.1" id="Capa_1" xmlns="http://www.w3.org/2000/svg" xmlns:xlink="http://www.w3.org/1999/xlink" x="0px" y="0px"
	 viewBox="0 0 512 512" style="enable-background:new 0 0 512 512;" xml:space="preserve">
<rect x="23.532" y="187.859" style="fill:#FFC850;" width="464.94" height="152.31"/>
<path style="fill:#92E0C0;" d="M421.629,340.168c-41.435,0-41.435-24.048-82.871-24.048c-41.407,0-41.407,24.048-82.814,24.048
	c-41.42,0-41.42-24.048-82.841-24.048c-41.406,0-41.406,24.048-82.812,24.048c-41.395,0-41.395-24.048-82.791-24.048v40.081
	c41.395,0,41.395,24.048,82.791,24.048c41.406,0,41.406-24.048,82.812-24.048c41.42,0,41.42,24.048,82.841,24.048
	c41.408,0,41.408-24.048,82.814-24.048c41.436,0,41.436,24.048,82.871,24.048c41.436,0,41.436-24.048,82.871-24.048V316.12
	C463.065,316.12,463.065,340.168,421.629,340.168z"/>
<path style="fill:#ABFFDB;" d="M421.629,380.249c-41.435,0-41.435-24.048-82.871-24.048c-41.407,0-41.407,24.048-82.814,24.048
	c-41.42,0-41.42-24.048-82.841-24.048c-41.406,0-41.406,24.048-82.812,24.048c-41.395,0-41.395-24.048-82.791-24.048v40.081
	c41.395,0,41.395,24.048,82.791,24.048c41.406,0,41.406-24.048,82.812-24.048c41.42,0,41.42,24.048,82.841,24.048
	c41.408,0,41.408-24.048,82.814-24.048c41.436,0,41.436,24.048,82.871,24.048c41.436,0,41.436-24.048,82.871-24.048v-40.081
	C463.065,356.201,463.065,380.249,421.629,380.249z"/>
<path style="fill:#474D54;" d="M7.5,323.62c18.677,0,27.459,5.102,37.627,11.009c10.521,6.112,22.445,13.039,45.163,13.039
	c22.723,0,34.649-6.927,45.172-13.039c10.172-5.908,18.956-11.01,37.64-11.01c18.691,0,27.479,5.102,37.654,11.01
	c10.526,6.111,22.457,13.038,45.186,13.038c22.724,0,34.651-6.927,45.174-13.039c10.172-5.908,18.957-11.01,37.641-11.01
	c18.699,0,27.491,5.103,37.671,11.011c10.529,6.111,22.464,13.038,45.201,13.038c22.736,0,34.671-6.926,45.2-13.038
	c10.18-5.908,18.972-11.011,37.671-11.011c4.142,0,7.5-3.358,7.5-7.5s-3.358-7.5-7.5-7.5c-3.03,0-5.863,0.126-8.532,0.354v-121.11
	c0-4.142-3.358-7.5-7.5-7.5H400.29c-4.142,0-7.5,3.358-7.5,7.5s3.358,7.5,7.5,7.5h80.678v116.326
	c-8.932,2.583-15.54,6.413-21.668,9.969c-10.18,5.908-18.972,11.011-37.671,11.011c-18.699,0-27.491-5.103-37.671-11.011
	c-10.529-6.111-22.464-13.038-45.2-13.038c-11.361,0-20.023,1.731-27.161,4.227V195.362h56.628c4.142,0,7.5-3.358,7.5-7.5
	s-3.358-7.5-7.5-7.5h-8.532v-64.645c0-17.396-14.152-31.548-31.548-31.548s-31.548,14.152-31.548,31.548v64.645h-49.129v-64.645
	c0-17.396-14.152-31.548-31.548-31.548s-31.548,14.152-31.548,31.548v64.645H23.532c-4.142,0-7.5,3.358-7.5,7.5v121.113
	c-2.669-0.228-5.502-0.355-8.532-0.355c-4.142,0-7.5,3.358-7.5,7.5S3.358,323.62,7.5,323.62z M296.597,276.556h-97.226v-33.097
	h97.226V276.556z M293.583,321.659c-10.172,5.908-18.957,11.01-37.641,11.01c-18.691,0-27.479-5.103-37.655-11.01
	c-5.481-3.182-11.347-6.584-18.917-9.115v-20.987h97.226v28.364C295.575,320.502,294.573,321.084,293.583,321.659z M311.597,115.717
	c0-9.125,7.423-16.548,16.548-16.548s16.548,7.423,16.548,16.548v64.645h-33.097L311.597,115.717L311.597,115.717z M296.597,228.459
	h-97.226v-33.097h97.226V228.459z M199.371,115.717c0-9.125,7.423-16.548,16.548-16.548s16.548,7.423,16.548,16.548v64.645H199.37
	L199.371,115.717L199.371,115.717z M31.032,195.362h153.339v113.889c-3.445-0.403-7.179-0.63-11.269-0.63
	c-22.723,0-34.65,6.927-45.173,13.039c-10.172,5.908-18.957,11.01-37.639,11.01c-18.677,0-27.459-5.102-37.628-11.009
	c-6.118-3.554-12.716-7.382-21.63-9.965C31.032,311.696,31.032,195.362,31.032,195.362z"/>
<g>
	<path style="fill:#FFFFFF;" d="M504.5,348.701c-6.359,0-12.077,0.518-17.48,1.583c-4.064,0.801-6.709,4.745-5.908,8.809
		c0.705,3.574,3.84,6.051,7.35,6.051c0.481,0,0.969-0.046,1.459-0.143c4.436-0.874,9.205-1.3,14.579-1.3c4.142,0,7.5-3.358,7.5-7.5
		S508.642,348.701,504.5,348.701z"/>
	<path style="fill:#FFFFFF;" d="M135.463,374.71c10.172-5.908,18.956-11.01,37.64-11.01c18.691,0,27.479,5.102,37.654,11.01
		c10.526,6.111,22.457,13.038,45.186,13.038c22.724,0,34.651-6.927,45.174-13.039c10.172-5.908,18.957-11.01,37.641-11.01
		c18.699,0,27.491,5.103,37.671,11.011c10.529,6.111,22.464,13.038,45.201,13.038c18.358,0,29.393-4.484,37.766-8.87
		c3.669-1.922,5.086-6.455,3.163-10.124s-6.455-5.085-10.124-3.163c-7.096,3.717-15.739,7.157-30.805,7.157
		c-18.699,0-27.491-5.103-37.671-11.011c-10.529-6.111-22.464-13.038-45.2-13.038c-22.724,0-34.651,6.927-45.174,13.039
		c-10.172,5.908-18.957,11.01-37.641,11.01c-18.691,0-27.479-5.103-37.655-11.01c-10.526-6.111-22.456-13.038-45.186-13.038
		c-22.723,0-34.65,6.927-45.173,13.039c-10.172,5.908-18.957,11.01-37.639,11.01c-18.677,0-27.459-5.102-37.628-11.009
		c-10.521-6.112-22.445-13.039-45.163-13.039c-4.142,0-7.5,3.358-7.5,7.5s3.358,7.5,7.5,7.5c18.677,0,27.459,5.102,37.627,11.009
		c10.521,6.112,22.445,13.039,45.163,13.039C113.013,387.749,124.94,380.822,135.463,374.71z"/>
</g>
<g>
	<path style="fill:#48C397;" d="M504.5,388.781c-22.736,0-34.671,6.926-45.2,13.038c-10.18,5.908-18.972,11.011-37.671,11.011
		s-27.491-5.103-37.671-11.011c-10.529-6.111-22.464-13.038-45.2-13.038c-22.724,0-34.651,6.927-45.174,13.039
		c-10.172,5.908-18.957,11.01-37.641,11.01c-18.691,0-27.479-5.103-37.655-11.01c-10.526-6.111-22.456-13.038-45.186-13.038
		c-22.723,0-34.65,6.927-45.173,13.039c-10.172,5.908-18.957,11.01-37.639,11.01c-15.196,0-23.971-3.546-31.189-7.378
		c-3.658-1.941-8.199-0.551-10.141,3.108c-1.942,3.659-0.551,8.199,3.108,10.141c8.503,4.514,19.694,9.129,38.222,9.129
		c22.723,0,34.649-6.927,45.172-13.039c10.172-5.908,18.956-11.01,37.64-11.01c18.691,0,27.479,5.102,37.654,11.01
		c10.526,6.111,22.457,13.038,45.186,13.038c22.724,0,34.651-6.927,45.174-13.039c10.172-5.908,18.957-11.01,37.641-11.01
		c18.699,0,27.491,5.103,37.671,11.011c10.529,6.111,22.464,13.038,45.201,13.038c22.736,0,34.671-6.926,45.2-13.038
		c10.18-5.908,18.972-11.011,37.671-11.011c4.142,0,7.5-3.358,7.5-7.5S508.642,388.781,504.5,388.781z"/>
	<path style="fill:#48C397;" d="M24.987,390.369c-5.406-1.068-11.126-1.587-17.487-1.587c-4.142,0-7.5,3.358-7.5,7.5
		s3.358,7.5,7.5,7.5c5.373,0,10.142,0.426,14.58,1.303c0.491,0.097,0.979,0.144,1.462,0.144c3.509,0,6.644-2.475,7.35-6.048
		C31.694,395.117,29.051,391.172,24.987,390.369z"/>
</g>
<g>
</g>
<g>
</g>
<g>
</g>
<g>
</g>
<g>
</g>
<g>
</g>
<g>
</g>
<g>
</g>
<g>
</g>
<g>
</g>
<g>
</g>
<g>
</g>
<g>
</g>
<g>
</g>
<g>
</g>
</svg>
