<svg id="logo" enable-background="new 0 0 512 512" height="45" viewBox="0 0 512 512" width="45" xmlns="http://www.w3.org/2000/svg"><g><path d="m256 96c-57.35 0-104 46.65-104 104s46.65 104 104 104 104-46.65 104-104-46.65-104-104-104zm56 152c0 9.094-7.577 16.41-16.765 15.982-8.609-.401-15.235-7.813-15.235-16.431v-26.551c0-2.761-2.239-5-5-5h-38c-2.761 0-5 2.239-5 5v26.551c0 8.618-6.626 16.031-15.235 16.431-9.188.428-16.765-6.888-16.765-15.982v-95.551c0-8.618 6.626-16.03 15.235-16.431 9.188-.428 16.765 6.888 16.765 15.982v27c0 2.761 2.239 5 5 5h38c2.761 0 5-2.239 5-5v-26.551c0-8.618 6.626-16.03 15.234-16.431 9.189-.428 16.766 6.888 16.766 15.982z"/><path d="m256 0c-110.28 0-200 89.72-200 200 0 78.697 45.439 155.129 95.73 215.27 46.54 55.65 92.48 91.82 94.41 93.33 5.748 4.499 13.885 4.567 19.72 0 1.93-1.51 47.87-37.68 94.41-93.33 50.277-60.124 95.73-136.56 95.73-215.27 0-110.28-89.72-200-200-200zm0 336c-74.99 0-136-61.01-136-136s61.01-136 136-136 136 61.01 136 136-61.01 136-136 136z"/></g></svg>